<svg width="165" height="161" viewBox="0 0 165 161" fill="none" xmlns="http://www.w3.org/2000/svg">
<path d="M82.5 157C125.854 157 161 122.75 161 80.5C161 38.2502 125.854 4 82.5 4C39.1456 4 4 38.2502 4 80.5C4 122.75 39.1456 157 82.5 157Z" fill="#C4C4C4" fill-opacity="0.01" stroke="white" stroke-width="7" stroke-linecap="round" stroke-linejoin="round"/>
<ellipse cx="82.5" cy="80" rx="75.5" ry="73" fill="#4A943E"/>
<path d="M96 63V45.6286C96 41.7488 94.4723 38.028 91.753 35.2846C89.0338 32.5412 85.3456 31 81.5 31C77.6544 31 73.9662 32.5412 71.247 35.2846C68.5277 38.028 67 41.7488 67 45.6286V63" stroke="white" stroke-width="8" stroke-linecap="round" stroke-linejoin="round"/>
<path d="M100.3 66H59.7C54.8951 66 51 69.9504 51 74.8235V107.176C51 112.05 54.8951 116 59.7 116H100.3C105.105 116 109 112.05 109 107.176V74.8235C109 69.9504 105.105 66 100.3 66Z" stroke="white" stroke-width="8" stroke-linecap="round" stroke-linejoin="round"/>
</svg>
