<svg width="28" height="28" viewBox="0 0 28 28" fill="none" xmlns="http://www.w3.org/2000/svg">
<path d="M27 14C27 6.82292 21.1771 1 14 1C6.82292 1 1 6.82292 1 14C1 21.1771 6.82292 27 14 27C21.1771 27 27 21.1771 27 14Z" fill="#595959" stroke="white" stroke-miterlimit="10"/>
<path d="M14.3824 12L19.853 9.5L14.3824 7V12ZM19.0932 9.5H8.00003Z" fill="black"/>
<path d="M14.3824 12L14.5902 12.4548C14.4354 12.5255 14.2553 12.5126 14.1121 12.4207C13.9689 12.3287 13.8824 12.1702 13.8824 12H14.3824ZM19.853 9.5L20.0608 9.04524C20.2388 9.12658 20.353 9.30429 20.353 9.5C20.353 9.69571 20.2388 9.87342 20.0608 9.95476L19.853 9.5ZM14.3824 7H13.8824C13.8824 6.82982 13.9689 6.67133 14.1121 6.57934C14.2553 6.48735 14.4354 6.4745 14.5902 6.54524L14.3824 7ZM19.0932 9.5L14.0932 12.3868V6.61325L19.0932 9.5ZM8.00003 10C7.72388 10 7.50003 9.77614 7.50003 9.5C7.50003 9.22386 7.72388 9 8.00003 9V10ZM14.1746 11.5452L19.6451 9.04524L20.0608 9.95476L14.5902 12.4548L14.1746 11.5452ZM19.6451 9.95476L14.1746 7.45476L14.5902 6.54524L20.0608 9.04524L19.6451 9.95476ZM14.8824 7V12H13.8824V7H14.8824ZM14.5932 10H8.00003V9H14.5932V10Z" fill="#D6D6D5"/>
<path d="M13.4706 21L8 18.5L13.4706 16V21ZM8.7598 18.5H19.8529H8.7598Z" fill="black"/>
<path d="M13.4706 21L13.2628 21.4548C13.4175 21.5255 13.5977 21.5126 13.7409 21.4207C13.884 21.3287 13.9706 21.1702 13.9706 21H13.4706ZM8 18.5L7.79218 18.0452C7.61418 18.1266 7.5 18.3043 7.5 18.5C7.5 18.6957 7.61418 18.8734 7.79218 18.9548L8 18.5ZM13.4706 16H13.9706C13.9706 15.8298 13.884 15.6713 13.7409 15.5793C13.5977 15.4874 13.4175 15.4745 13.2628 15.5452L13.4706 16ZM8.7598 18.5L13.7598 21.3868V15.6132L8.7598 18.5ZM19.8529 19C20.1291 19 20.3529 18.7761 20.3529 18.5C20.3529 18.2239 20.1291 18 19.8529 18V19ZM13.6784 20.5452L8.20782 18.0452L7.79218 18.9548L13.2628 21.4548L13.6784 20.5452ZM8.20782 18.9548L13.6784 16.4548L13.2628 15.5452L7.79218 18.0452L8.20782 18.9548ZM12.9706 16V21H13.9706V16H12.9706ZM13.2598 19H19.8529V18H13.2598V19Z" fill="#D6D6D5"/>
</svg>
