<svg width="63" height="63" viewBox="0 0 63 63" fill="none" xmlns="http://www.w3.org/2000/svg">
<path d="M31.5 63C48.897 63 63 48.897 63 31.5C63 14.103 48.897 0 31.5 0C14.103 0 0 14.103 0 31.5C0 48.897 14.103 63 31.5 63Z" fill="#D0322F"/>
<path d="M42.405 13.659C35.173 8.00002 26.047 8.52002 19.311 14.764C14.811 18.936 11.938 26.794 15.819 33.922C17.95 37.835 20.494 41.434 23.41 44.766C25.94 47.658 28.623 50.418 31.275 53.276C31.613 53.047 31.737 52.988 31.832 52.897C36.709 48.249 41.263 43.31 44.988 37.675C46.717 35.059 48.462 32.353 48.85 29.176C49.623 22.845 47.383 17.554 42.405 13.659ZM31.488 40.37C23.641 40.362 17.624 34.124 17.634 26.008C17.643 18.884 24.169 12.593 31.524 12.617C39.204 12.642 45.421 18.97 45.404 26.742C45.387 34.132 39.01 40.377 31.488 40.37Z" fill="white"/>
<path d="M35.871 20.616C34.903 19.841 33.461 19.455 31.44 19.455C29.44 19.455 28.021 19.583 27.01 19.756V34.056H30.257V28.873C30.558 28.916 30.945 28.938 31.376 28.938C33.311 28.938 34.966 28.465 36.085 27.411C36.946 26.595 37.418 25.39 37.418 23.971C37.418 22.552 36.794 21.347 35.871 20.616ZM31.354 26.421C30.881 26.421 30.537 26.4 30.257 26.336V22.056C30.494 21.992 30.945 21.927 31.612 21.927C33.246 21.927 34.171 22.722 34.171 24.056C34.171 25.54 33.096 26.421 31.354 26.421Z" fill="white"/>
<path d="M32 41C39.732 41 46 34.732 46 27C46 19.268 39.732 13 32 13C24.268 13 18 19.268 18 27C18 34.732 24.268 41 32 41Z" fill="#D0322F"/>
<path fill-rule="evenodd" clip-rule="evenodd" d="M27.7788 35.7481C28.0473 35.4632 28.3108 35.1948 28.5615 34.9148C28.6908 34.7703 28.8335 34.7188 29.029 34.7197C30.7739 34.7277 32.5188 34.7041 34.2628 34.7317C35.3464 34.7485 36.1877 34.3432 36.8677 33.5139C37.5126 32.7263 38.1908 31.9668 38.8553 31.1948C39.3415 30.6308 39.8335 30.0726 40.3144 29.5032C40.8246 28.9001 40.7219 28.0792 40.0935 27.6517C39.561 27.2899 38.8939 27.425 38.4086 27.981C37.4926 29.0325 36.5699 30.0797 35.6526 31.1308C35.4157 31.4014 35.1384 31.6401 34.7766 31.6494C33.7775 31.6761 32.7775 31.6659 31.7784 31.6597C31.5686 31.6583 31.457 31.513 31.4442 31.309C31.4308 31.1028 31.5313 30.9637 31.7353 30.9205C31.8446 30.8988 31.9593 30.8965 32.0722 30.8957C32.8357 30.8894 33.6006 30.9085 34.3633 30.8739C35.0135 30.8445 35.4864 30.2059 35.3819 29.5663C35.2788 28.9365 34.8202 28.5623 34.1184 28.557C33.213 28.549 32.3077 28.5601 31.4024 28.5508C31.2086 28.5485 31.0099 28.5139 30.8242 28.4597C29.0179 27.9241 27.3868 28.2463 25.9899 29.513C25.0975 30.3241 24.2642 31.2005 23.405 32.0481C23.3868 32.0668 23.3802 32.0948 23.3606 32.133C24.8202 33.3277 26.277 34.5197 27.7788 35.7481ZM32.1695 23.0103C31.7904 23.0103 31.4339 22.9961 31.0788 23.0143C30.7246 23.0321 30.4082 23.1477 30.2588 23.5103C30.1162 23.8574 30.269 24.1308 30.5024 24.377C31.3384 25.2601 32.1713 26.1459 33.0113 27.025C33.4397 27.4734 34.0477 27.4708 34.4833 27.0223C35.0544 26.4339 35.6175 25.8374 36.1833 25.2437C36.489 24.9228 36.8073 24.613 37.0939 24.2761C37.4926 23.8077 37.3042 23.2277 36.7126 23.0672C36.5606 23.0263 36.3975 23.0157 36.2384 23.0112C35.949 23.0023 35.6597 23.009 35.3517 23.009C35.3517 22.9125 35.3499 22.8485 35.3522 22.785C35.3975 21.6548 35.4184 20.5232 35.497 19.3957C35.5544 18.5739 35.0246 18.2494 34.3997 18.2543C33.9468 18.2574 33.4944 18.2521 33.0419 18.2557C32.3539 18.261 31.9979 18.6245 32.0224 19.3148C32.065 20.5285 32.1188 21.7432 32.1695 23.0103Z" fill="#D0322F"/>
<path fill-rule="evenodd" clip-rule="evenodd" d="M27.7786 35.748C26.2768 34.5195 24.8199 33.328 23.3604 32.1338C23.3799 32.0955 23.387 32.0675 23.4048 32.0489C24.2639 31.2013 25.0972 30.3249 25.9897 29.5138C27.387 28.2466 29.0177 27.9249 30.8239 28.4604C31.0097 28.5146 31.2088 28.5493 31.4021 28.5515C32.3075 28.5609 33.2128 28.5498 34.1181 28.5578C34.8199 28.5631 35.2781 28.9373 35.3817 29.5671C35.4861 30.2066 35.0132 30.8453 34.363 30.8746C33.6008 30.9093 32.8355 30.8902 32.0719 30.8964C31.959 30.8973 31.8444 30.8995 31.735 30.9213C31.531 30.9644 31.4301 31.1035 31.4439 31.3098C31.4568 31.5138 31.5688 31.6591 31.7781 31.6604C32.7777 31.6658 33.7777 31.676 34.7768 31.6493C35.1381 31.64 35.4159 31.4013 35.6528 31.1306C36.5701 30.0795 37.4928 29.0324 38.4088 27.9809C38.8941 27.4249 39.5612 27.2893 40.0937 27.6515C40.7221 28.0791 40.8248 28.9 40.3146 29.5031C39.8337 30.072 39.3417 30.6306 38.8555 31.1946C38.191 31.9662 37.5128 32.7258 36.8679 33.5138C36.1879 34.3431 35.3466 34.7484 34.263 34.7315C32.519 34.7035 30.7737 34.7271 29.0292 34.7195C28.8337 34.7186 28.691 34.7702 28.5617 34.9146C28.3106 35.1946 28.047 35.4631 27.7786 35.748Z" fill="white"/>
<line x1="32.2929" y1="26.7071" x2="29.2929" y2="23.7071" stroke="white" stroke-width="2"/>
<line x1="31.3415" y1="27.2474" x2="39.3415" y2="20.2474" stroke="white" stroke-width="2"/>
</svg>
