<svg width="165" height="161" viewBox="0 0 165 161" fill="none" xmlns="http://www.w3.org/2000/svg">
<path d="M82.5 157C125.854 157 161 122.75 161 80.5C161 38.2502 125.854 4 82.5 4C39.1456 4 4 38.2502 4 80.5C4 122.75 39.1456 157 82.5 157Z" fill="#C4C4C4" fill-opacity="0.01" stroke="white" stroke-width="7" stroke-linecap="round" stroke-linejoin="round"/>
<ellipse cx="82.5" cy="80" rx="75.5" ry="73" fill="#4A943E"/>
<path d="M97 53.5455C97 49.6878 95.4723 45.9881 92.753 43.2603C90.0338 40.5325 86.3456 39 82.5 39C78.6544 39 74.9662 40.5325 72.247 43.2603C69.5277 45.9881 68 49.6878 68 53.5455V71" stroke="white" stroke-width="8" stroke-linecap="round" stroke-linejoin="round"/>
<path d="M102.3 71H61.7C56.8951 71 53 74.9504 53 79.8235V112.176C53 117.05 56.8951 121 61.7 121H102.3C107.105 121 111 117.05 111 112.176V79.8235C111 74.9504 107.105 71 102.3 71Z" stroke="white" stroke-width="8" stroke-linecap="round" stroke-linejoin="round"/>
</svg>
