<svg width="165" height="164" viewBox="0 0 165 164" fill="none" xmlns="http://www.w3.org/2000/svg">
<path d="M82.5 160C125.854 160 161 125.078 161 82C161 38.9218 125.854 4 82.5 4C39.1456 4 4 38.9218 4 82C4 125.078 39.1456 160 82.5 160Z" fill="#C4C4C4" fill-opacity="0.01" stroke="#4A943F" stroke-width="8" stroke-linecap="round" stroke-linejoin="round"/>
<path d="M82 152C122.317 152 155 119.541 155 79.5C155 39.4594 122.317 7 82 7C41.6832 7 9 39.4594 9 79.5C9 119.541 41.6832 152 82 152Z" fill="white"/>
<path fill-rule="evenodd" clip-rule="evenodd" d="M64.4795 44.0253C64.9338 40.1126 64.9546 40.0988 68.8225 40.0988C69.0774 40.0988 69.3369 40.0827 69.5872 40.0988C71.761 40.253 73.3322 39.9239 74.9243 37.8271C78.7621 32.7613 86.4236 33.4081 89.8743 38.7869C90.5672 39.8617 91.274 40.1886 92.4443 40.1149C93.7189 40.0344 95.0005 40.0942 96.2821 40.0988C98.7247 40.108 99.2901 40.6673 99.3736 43.1369C99.3828 43.3786 99.4153 43.6202 99.4477 44.0253C102.365 44.0253 105.211 44.0253 108.059 44.0253C109.594 44.0253 111.128 44.0322 112.662 44.0253C114.041 44.0207 114.72 44.7342 114.812 46.0599C114.84 46.4144 114.826 46.7711 114.826 47.1256C114.826 71.9021 114.826 96.681 114.826 121.458C114.826 124.263 114.46 124.632 111.647 124.632C91.8627 124.632 72.0762 124.632 52.2943 124.632C49.5667 124.632 49.1635 124.233 49.1635 121.564C49.1635 96.7363 49.1635 71.9045 49.1635 47.0795C49.1635 44.4212 49.5713 44.0276 52.2943 44.0276C56.3314 44.0253 60.3614 44.0253 64.4795 44.0253ZM110.947 120.767C110.947 96.4348 110.947 72.229 110.947 47.9334C107.098 47.9334 103.292 47.9334 99.3689 47.9334C99.3689 48.7965 99.3689 49.5537 99.3689 50.3087C99.3666 53.2478 98.9981 53.6137 95.9854 53.6137C86.6785 53.616 77.3739 53.6137 68.067 53.6137C67.6591 53.6137 67.2489 53.6298 66.8457 53.5999C65.2791 53.4802 64.6603 52.8381 64.6279 51.2914C64.6047 50.1913 64.6209 49.0911 64.6209 47.9104C60.6696 47.9104 56.913 47.9104 53.0753 47.9104C53.0753 72.2198 53.0753 96.4624 53.0753 120.765C72.3682 120.767 91.5753 120.767 110.947 120.767Z" fill="#4A943F"/>
<path fill-rule="evenodd" clip-rule="evenodd" d="M66.3709 89.1935C68.927 86.1485 71.409 83.191 73.8934 80.2334C74.1274 79.9595 74.3406 79.6764 74.5863 79.4187C75.6083 78.3346 76.577 78.2126 77.5086 79.0826C78.4981 80.0079 78.2919 80.9906 77.5132 81.9182C74.4171 85.626 71.3187 89.3385 68.1924 93.0187C67.277 94.0936 66.0001 94.1235 64.9827 93.1407C63.1473 91.3685 61.3513 89.5664 59.5506 87.755C58.6839 86.8827 58.4938 85.8884 59.3397 84.9102C60.1184 84.0011 61.2493 84.0817 62.2968 85.0944C63.6432 86.4086 64.9572 87.7665 66.3709 89.1935Z" fill="#4A943F"/>
<path fill-rule="evenodd" clip-rule="evenodd" d="M66.3245 110.363C69.0243 107.16 71.5712 104.135 74.1181 101.109C74.3498 100.839 74.5422 100.529 74.8017 100.294C75.6221 99.5483 76.5398 99.4401 77.4251 100.149C78.3173 100.867 78.4656 101.834 77.7495 102.699C74.5468 106.584 71.3209 110.442 68.0417 114.26C67.1147 115.342 66.044 115.31 64.9757 114.29C63.1379 112.529 61.3396 110.729 59.5575 108.913C58.7185 108.06 58.4474 107.072 59.335 106.076C60.1044 105.215 61.3118 105.24 62.3083 106.209C63.6547 107.516 64.9224 108.902 66.3245 110.363Z" fill="#4A943F"/>
<path fill-rule="evenodd" clip-rule="evenodd" d="M66.3638 68.0847C68.7392 65.2561 70.9894 62.5793 73.2443 59.9049C73.7356 59.3203 74.22 58.7265 74.7345 58.1695C75.5479 57.2857 76.505 57.1177 77.4413 57.8956C78.3775 58.6712 78.4123 59.6517 77.6452 60.5816C75.2814 63.4424 72.8944 66.2849 70.5144 69.1342C69.7334 70.0687 68.9663 71.0215 68.1529 71.9307C67.2328 72.9526 66.0695 73.0331 65.0846 72.0872C63.2097 70.2896 61.3812 68.4392 59.5435 66.6094C58.6513 65.7233 58.4682 64.706 59.3697 63.79C60.2712 62.8785 61.3094 63.0166 62.2063 63.905C63.5712 65.2584 64.9154 66.6301 66.3638 68.0847Z" fill="#4A943F"/>
<path fill-rule="evenodd" clip-rule="evenodd" d="M92.7454 87.2774C96.115 87.2751 99.4869 87.2682 102.856 87.282C104.363 87.2912 105.148 87.9334 105.158 89.1118C105.165 90.3132 104.386 90.9945 102.905 90.9991C96.0617 91.0129 89.2205 91.0083 82.3748 90.9991C80.9124 90.9968 80.0712 90.3086 80.0527 89.1647C80.0341 88.0185 80.8823 87.2912 82.3238 87.282C85.8023 87.2659 89.2715 87.2774 92.7454 87.2774Z" fill="#4A943F"/>
<path fill-rule="evenodd" clip-rule="evenodd" d="M92.6046 69.9212C89.286 69.9212 85.9651 69.9258 82.6465 69.9212C81.0057 69.9166 80.037 69.1893 80.0509 67.9994C80.0602 66.8486 80.971 66.1351 82.5283 66.1328C89.2698 66.1236 96.0136 66.1213 102.757 66.1328C104.361 66.1374 105.179 66.8164 105.156 68.0385C105.128 69.2837 104.343 69.912 102.718 69.9189C99.3484 69.9281 95.9765 69.9212 92.6046 69.9212Z" fill="#4A943F"/>
<path fill-rule="evenodd" clip-rule="evenodd" d="M92.4977 112.129C89.23 112.129 85.9601 112.136 82.6948 112.124C80.9984 112.12 80.0714 111.452 80.0506 110.262C80.0274 109.065 80.9915 108.331 82.6322 108.331C89.376 108.327 96.1175 108.336 102.861 108.324C103.944 108.322 104.929 108.644 105.047 109.754C105.119 110.414 104.683 111.282 104.194 111.797C103.869 112.145 103.054 112.113 102.458 112.115C99.1395 112.145 95.8186 112.129 92.4977 112.129Z" fill="#4A943F"/>
</svg>
