<svg width="165" height="164" viewBox="0 0 165 164" fill="none" xmlns="http://www.w3.org/2000/svg">
<path d="M82.5 160C125.854 160 161 125.078 161 82C161 38.9218 125.854 4 82.5 4C39.1456 4 4 38.9218 4 82C4 125.078 39.1456 160 82.5 160Z" fill="#C4C4C4" fill-opacity="0.01" stroke="white" stroke-width="8" stroke-linecap="round" stroke-linejoin="round"/>
<ellipse cx="82.5" cy="82" rx="74.5" ry="75" fill="#4A943E"/>
<path d="M97.5 45H103.3C105.607 45 107.82 45.9482 109.452 47.636C111.083 49.3239 112 51.6131 112 54V114C112 116.387 111.083 118.676 109.452 120.364C107.82 122.052 105.607 123 103.3 123H62.7C60.3926 123 58.1797 122.052 56.5482 120.364C54.9166 118.676 54 116.387 54 114V54C54 51.6131 54.9166 49.3239 56.5482 47.636C58.1797 45.9482 60.3926 45 62.7 45H68.5" stroke="white" stroke-width="4" stroke-linejoin="round"/>
<path d="M91.9172 37H75.0828C72.8279 37 71 39.1935 71 41.8994V44.1006C71 46.8065 72.8279 49 75.0828 49H91.9172C94.1721 49 96 46.8065 96 44.1006V41.8994C96 39.1935 94.1721 37 91.9172 37Z" stroke="white" stroke-width="4" stroke-linejoin="round"/>
<path d="M99.7008 112.718L95.694 116.195L91.8255 111.907L92.551 68.0581L100.537 68.882L99.7008 112.718ZM100.563 67.2098L92.5843 66.3874L92.7343 61.9954C92.7444 61.3026 93.1009 60.618 93.6072 60.1786C93.8558 59.9616 94.1498 59.7995 94.4721 59.7017C94.7944 59.6038 95.1387 59.5721 95.4851 59.6084L97.9193 59.8593C98.2648 59.8948 98.6056 59.9974 98.9223 60.1612C99.2389 60.3249 99.5251 60.5465 99.7643 60.8133C100.257 61.3591 100.583 62.1113 100.571 62.8046L100.563 67.2098Z" fill="white"/>
</svg>
