<svg width="165" height="164" viewBox="0 0 165 164" fill="none" xmlns="http://www.w3.org/2000/svg">
<path d="M82.5 160C125.854 160 161 125.078 161 82C161 38.9218 125.854 4 82.5 4C39.1456 4 4 38.9218 4 82C4 125.078 39.1456 160 82.5 160Z" fill="#C4C4C4" fill-opacity="0.01" stroke="#4A943F" stroke-width="8" stroke-linecap="round" stroke-linejoin="round"/>
<path d="M82.5 157C123.645 157 157 123.421 157 82C157 40.5786 123.645 7 82.5 7C41.3548 7 8 40.5786 8 82C8 123.421 41.3548 157 82.5 157Z" fill="white"/>
<path d="M108.291 39.514C91.187 26.0402 69.6033 27.2783 53.6721 42.145C43.0292 52.0783 36.2344 70.7878 45.4132 87.7593C50.4532 97.0759 56.47 105.645 63.3665 113.578C69.3502 120.464 75.6957 127.035 81.9679 133.84C82.7673 133.295 83.0606 133.155 83.2852 132.938C94.8197 121.871 105.59 110.112 114.4 96.695C118.489 90.4664 122.617 84.0235 123.534 76.4593C125.362 61.3854 120.065 48.7878 108.291 39.514ZM82.4717 103.112C63.9129 103.093 49.6822 88.2402 49.7059 68.9164C49.7271 51.9545 65.1616 36.9759 82.5568 37.0331C100.721 37.0926 115.424 52.1593 115.384 70.664C115.344 88.2593 100.262 103.128 82.4717 103.112Z" fill="#4A943F"/>
<path d="M92.8378 56.0768C90.5484 54.2315 87.138 53.3125 82.3582 53.3125C77.628 53.3125 74.272 53.6173 71.8809 54.0292V88.0768H79.5603V75.7363C80.2722 75.8387 81.1874 75.8911 82.2068 75.8911C86.7832 75.8911 90.6974 74.7649 93.344 72.2554C95.3803 70.3125 96.4966 67.4434 96.4966 64.0649C96.4966 60.6863 95.0208 57.8173 92.8378 56.0768ZM82.1548 69.8982C81.0361 69.8982 80.2225 69.8482 79.5603 69.6958V59.5054C80.1208 59.353 81.1874 59.1982 82.765 59.1982C86.6295 59.1982 88.8172 61.0911 88.8172 64.2673C88.8172 67.8006 86.2747 69.8982 82.1548 69.8982Z" fill="#4A943F"/>
<path d="M82.5 157C123.645 157 157 123.421 157 82C157 40.5786 123.645 7 82.5 7C41.3548 7 8 40.5786 8 82C8 123.421 41.3548 157 82.5 157Z" fill="white"/>
<path d="M108.291 39.514C91.187 26.0402 69.6033 27.2783 53.6721 42.145C43.0292 52.0783 36.2344 70.7878 45.4132 87.7593C50.4532 97.0759 56.47 105.645 63.3665 113.578C69.3502 120.464 75.6957 127.035 81.9679 133.84C82.7673 133.295 83.0606 133.155 83.2852 132.938C94.8197 121.871 105.59 110.112 114.4 96.695C118.489 90.4664 122.617 84.0235 123.534 76.4593C125.362 61.3854 120.065 48.7878 108.291 39.514ZM82.4717 103.112C63.9129 103.093 49.6822 88.2402 49.7059 68.9164C49.7271 51.9545 65.1616 36.9759 82.5568 37.0331C100.721 37.0926 115.424 52.1593 115.384 70.664C115.344 88.2593 100.262 103.128 82.4717 103.112Z" fill="#4A943F"/>
<path d="M92.8378 56.0768C90.5484 54.2315 87.138 53.3125 82.3582 53.3125C77.628 53.3125 74.272 53.6173 71.8809 54.0292V88.0768H79.5603V75.7363C80.2722 75.8387 81.1874 75.8911 82.2068 75.8911C86.7832 75.8911 90.6974 74.7649 93.344 72.2554C95.3803 70.3125 96.4966 67.4434 96.4966 64.0649C96.4966 60.6863 95.0208 57.8173 92.8378 56.0768ZM82.1548 69.8982C81.0361 69.8982 80.2225 69.8482 79.5603 69.6958V59.5054C80.1208 59.353 81.1874 59.1982 82.765 59.1982C86.6295 59.1982 88.8172 61.0911 88.8172 64.2673C88.8172 67.8006 86.2747 69.8982 82.1548 69.8982Z" fill="#4A943F"/>
<ellipse cx="82.5" cy="82" rx="72.5" ry="75" fill="white"/>
<path d="M53.1737 47.0039L48.6666 51.3553L58.5822 64.7621C58.9996 65.3266 59.5508 65.7867 60.1898 66.1038C60.8288 66.421 61.537 66.5861 62.2555 66.5853H62.571C63.1636 66.5849 63.7504 66.6972 64.298 66.916C64.8455 67.1348 65.343 67.4557 65.762 67.8603L77.8184 79.5003L66.0234 91.049C64.006 90.4757 61.878 90.3641 59.8081 90.7231C57.7383 91.0821 55.7836 91.9019 54.099 93.1173C52.4145 94.3327 51.0465 95.9105 50.1035 97.7253C49.1605 99.5401 48.6686 101.542 48.6666 103.572C48.6693 105.443 49.0885 107.292 49.8958 108.992C50.703 110.693 51.8795 112.207 53.3455 113.43C54.8114 114.654 56.5327 115.559 58.3925 116.084C60.2524 116.609 62.2075 116.742 64.1252 116.474C66.043 116.206 67.8787 115.543 69.508 114.53C71.1372 113.517 72.5219 112.178 73.5683 110.603C74.6147 109.029 75.2983 107.255 75.5728 105.403C75.8473 103.551 75.7062 101.664 75.1593 99.8694L87.1211 88.4817L91.4839 92.6939L90.1093 96.6711C89.8451 97.4377 89.8072 98.2601 89.9999 99.0464C90.1925 99.8326 90.6081 100.551 91.2 101.123L106.326 115.726C107.171 116.542 108.317 117 109.512 117C110.707 117 111.854 116.542 112.699 115.726L119.847 108.825C120.692 108.009 121.167 106.902 121.167 105.748C121.167 104.594 120.692 103.488 119.847 102.672L104.721 88.0683C104.13 87.4968 103.385 87.0956 102.571 86.9096C101.756 86.7237 100.905 86.7602 100.11 87.0152L95.991 88.3424L91.6642 84.1651L103.743 72.6642C105.747 73.1807 107.847 73.2459 109.881 72.8549C111.915 72.4639 113.829 71.6271 115.475 70.4091C117.121 69.1911 118.455 67.6244 119.375 65.8297C120.295 64.0351 120.776 62.0605 120.78 60.0582C120.78 58.8876 120.622 57.7519 120.32 56.6771L110.675 65.9935L102.752 64.4096L101.111 56.7641L110.761 47.4477C108.465 46.8519 106.048 46.8507 103.752 47.4445C101.455 48.0383 99.3621 49.2059 97.6824 50.8298C96.0028 52.4536 94.7962 54.4763 94.1843 56.6939C93.5724 58.9115 93.5769 61.2456 94.1972 63.461L82.2985 75.1141L70.2691 63.5088C69.4238 62.693 68.9488 61.5864 68.9485 60.4324V60.1234C68.9486 59.4305 68.7772 58.7476 68.4488 58.1315C68.1203 57.5154 67.6442 56.984 67.06 56.5814L53.1737 47.0039ZM96.649 93.3292C96.8584 93.1266 97.1071 92.9658 97.3809 92.8561C97.6546 92.7464 97.9481 92.69 98.2446 92.69C98.541 92.69 98.8345 92.7464 99.1083 92.8561C99.382 92.9658 99.6307 93.1266 99.8401 93.3292L113.361 106.383C113.571 106.586 113.737 106.826 113.85 107.09C113.964 107.354 114.022 107.638 114.022 107.924C114.022 108.21 113.964 108.493 113.85 108.758C113.737 109.022 113.571 109.262 113.361 109.464C113.152 109.667 112.903 109.827 112.629 109.936C112.356 110.046 112.062 110.102 111.766 110.102C111.469 110.102 111.176 110.046 110.902 109.936C110.629 109.827 110.38 109.667 110.17 109.464L96.649 96.41C96.4392 96.2079 96.2727 95.9678 96.1591 95.7035C96.0455 95.4391 95.987 95.1558 95.987 94.8696C95.987 94.5834 96.0455 94.3 96.1591 94.0357C96.2727 93.7714 96.4392 93.5313 96.649 93.3292ZM62.1879 94.8696L64.3107 95.9226L66.695 96.0358L67.9885 97.9721L69.9941 99.221L70.1113 101.523L71.202 103.572L70.1113 105.622L69.9941 107.924L67.9885 109.173L66.695 111.109L64.3107 111.222L62.1879 112.275L60.065 111.222L57.6808 111.109L56.3873 109.173L54.3816 107.924L54.2644 105.622L53.1737 103.572L54.2644 101.523L54.3816 99.221L56.3873 97.9721L57.6808 96.0358L60.065 95.9226L62.1879 94.8696Z" fill="#4A943E"/>
</svg>
