<svg width="165" height="164" viewBox="0 0 165 164" fill="none" xmlns="http://www.w3.org/2000/svg">
<path d="M82.5 160C125.854 160 161 125.078 161 82C161 38.9218 125.854 4 82.5 4C39.1456 4 4 38.9218 4 82C4 125.078 39.1456 160 82.5 160Z" fill="#C4C4C4" fill-opacity="0.01" stroke="#4A943F" stroke-width="8" stroke-linecap="round" stroke-linejoin="round"/>
<path d="M82.5 157C123.645 157 157 123.421 157 82C157 40.5786 123.645 7 82.5 7C41.3548 7 8 40.5786 8 82C8 123.421 41.3548 157 82.5 157Z" fill="white"/>
<path d="M108.291 39.514C91.187 26.0402 69.6033 27.2783 53.6721 42.145C43.0292 52.0783 36.2344 70.7878 45.4132 87.7593C50.4532 97.0759 56.47 105.645 63.3665 113.578C69.3502 120.464 75.6957 127.035 81.9679 133.84C82.7673 133.295 83.0606 133.155 83.2852 132.938C94.8197 121.871 105.59 110.112 114.4 96.695C118.489 90.4664 122.617 84.0235 123.534 76.4593C125.362 61.3854 120.065 48.7878 108.291 39.514ZM82.4717 103.112C63.9129 103.093 49.6822 88.2402 49.7059 68.9164C49.7271 51.9545 65.1616 36.9759 82.5568 37.0331C100.721 37.0926 115.424 52.1593 115.384 70.664C115.344 88.2593 100.262 103.128 82.4717 103.112Z" fill="#4A943F"/>
<path d="M92.8378 56.0768C90.5484 54.2315 87.138 53.3125 82.3582 53.3125C77.628 53.3125 74.272 53.6173 71.8809 54.0292V88.0768H79.5603V75.7363C80.2722 75.8387 81.1874 75.8911 82.2068 75.8911C86.7832 75.8911 90.6974 74.7649 93.344 72.2554C95.3803 70.3125 96.4966 67.4434 96.4966 64.0649C96.4966 60.6863 95.0208 57.8173 92.8378 56.0768ZM82.1548 69.8982C81.0361 69.8982 80.2225 69.8482 79.5603 69.6958V59.5054C80.1208 59.353 81.1874 59.1982 82.765 59.1982C86.6295 59.1982 88.8172 61.0911 88.8172 64.2673C88.8172 67.8006 86.2747 69.8982 82.1548 69.8982Z" fill="#4A943F"/>
<path d="M82.5 157C123.645 157 157 123.421 157 82C157 40.5786 123.645 7 82.5 7C41.3548 7 8 40.5786 8 82C8 123.421 41.3548 157 82.5 157Z" fill="white"/>
<path d="M108.291 39.514C91.187 26.0402 69.6033 27.2783 53.6721 42.145C43.0292 52.0783 36.2344 70.7878 45.4132 87.7593C50.4532 97.0759 56.47 105.645 63.3665 113.578C69.3502 120.464 75.6957 127.035 81.9679 133.84C82.7673 133.295 83.0606 133.155 83.2852 132.938C94.8197 121.871 105.59 110.112 114.4 96.695C118.489 90.4664 122.617 84.0235 123.534 76.4593C125.362 61.3854 120.065 48.7878 108.291 39.514ZM82.4717 103.112C63.9129 103.093 49.6822 88.2402 49.7059 68.9164C49.7271 51.9545 65.1616 36.9759 82.5568 37.0331C100.721 37.0926 115.424 52.1593 115.384 70.664C115.344 88.2593 100.262 103.128 82.4717 103.112Z" fill="#4A943F"/>
<path d="M92.8378 56.0768C90.5484 54.2315 87.138 53.3125 82.3582 53.3125C77.628 53.3125 74.272 53.6173 71.8809 54.0292V88.0768H79.5603V75.7363C80.2722 75.8387 81.1874 75.8911 82.2068 75.8911C86.7832 75.8911 90.6974 74.7649 93.344 72.2554C95.3803 70.3125 96.4966 67.4434 96.4966 64.0649C96.4966 60.6863 95.0208 57.8173 92.8378 56.0768ZM82.1548 69.8982C81.0361 69.8982 80.2225 69.8482 79.5603 69.6958V59.5054C80.1208 59.353 81.1874 59.1982 82.765 59.1982C86.6295 59.1982 88.8172 61.0911 88.8172 64.2673C88.8172 67.8006 86.2747 69.8982 82.1548 69.8982Z" fill="#4A943F"/>
</svg>
