<svg width="165" height="161" viewBox="0 0 165 161" fill="none" xmlns="http://www.w3.org/2000/svg">
<path d="M82.5 157C125.854 157 161 122.75 161 80.5C161 38.2502 125.854 4 82.5 4C39.1456 4 4 38.2502 4 80.5C4 122.75 39.1456 157 82.5 157Z" fill="#C4C4C4" fill-opacity="0.01" stroke="white" stroke-width="8" stroke-linecap="round" stroke-linejoin="round"/>
<path d="M82.5 153C123.645 153 157 120.317 157 80C157 39.6832 123.645 7 82.5 7C41.3548 7 8 39.6832 8 80C8 120.317 41.3548 153 82.5 153Z" fill="#4A943F"/>
<path fill-rule="evenodd" clip-rule="evenodd" d="M60.2681 126C52.3592 119.486 44.6866 113.168 37 106.836C37.103 106.633 37.1404 106.485 37.2341 106.386C41.7585 101.891 46.1471 97.2441 50.8471 92.9432C58.206 86.2244 66.7938 84.5182 76.306 87.358C77.2844 87.6455 78.333 87.8293 79.3512 87.8411C84.119 87.8906 88.8869 87.8317 93.6547 87.8741C97.3506 87.9024 99.7637 89.8867 100.309 93.226C100.859 96.6173 98.3687 100.004 94.9444 100.159C90.9302 100.343 86.8997 100.242 82.8785 100.275C82.284 100.279 81.6801 100.291 81.1043 100.407C80.03 100.635 79.4987 101.373 79.5712 102.466C79.6391 103.548 80.2289 104.319 81.3314 104.326C86.5954 104.354 91.8618 104.408 97.1235 104.267C99.0265 104.217 100.489 102.952 101.737 101.517C106.568 95.9433 111.427 90.391 116.251 84.8151C118.807 81.867 122.32 81.1482 125.124 83.0689C128.434 85.336 128.975 89.6887 126.288 92.8867C123.755 95.9032 121.164 98.8655 118.603 101.856C115.104 105.947 111.532 109.975 108.136 114.153C104.555 118.551 100.124 120.7 94.4178 120.61C85.2332 120.462 76.0416 120.587 66.8546 120.547C65.8247 120.542 65.0734 120.815 64.3923 121.581C63.0698 123.066 61.6818 124.489 60.2681 126Z" fill="white"/>
<path fill-rule="evenodd" clip-rule="evenodd" d="M83.5192 59.0753C83.2457 52.3938 82.9603 45.9935 82.732 39.5909C82.6012 35.9526 84.5062 34.0363 88.1878 34.0082C90.609 33.9871 93.0301 34.0152 95.4536 34.0011C98.7975 33.9754 101.632 35.6856 101.326 40.0172C100.905 45.9631 100.793 51.9253 100.55 57.8828C100.538 58.2178 100.548 58.5552 100.548 59.0636C102.194 59.0636 103.744 59.0308 105.293 59.0753C106.144 59.101 107.017 59.1549 107.83 59.3705C110.998 60.2162 112.004 63.2734 109.871 65.7427C108.335 67.5184 106.634 69.1513 104.998 70.8428C101.97 73.9726 98.9569 77.1166 95.9007 80.2183C93.57 82.5845 90.3164 82.5985 88.0237 80.2324C83.5287 75.5962 79.0717 70.9271 74.5981 66.2745C73.3519 64.9766 72.5314 63.5382 73.2948 61.7062C74.0939 59.7968 75.7873 59.1854 77.6828 59.0917C79.5831 59.0027 81.4929 59.0753 83.5192 59.0753Z" fill="white"/>
</svg>
