<svg width="66" height="53" viewBox="0 0 66 53" fill="none" xmlns="http://www.w3.org/2000/svg">
<g filter="url(#filter0_d_819:9)">
<path d="M61 22.5C61 10.6302 48.4583 1 33 1C17.5417 1 5 10.6302 5 22.5C5 34.3698 17.5417 44 33 44C48.4583 44 61 34.3698 61 22.5Z" fill="#D8D8D7"/>
<path d="M61 22.5C61 10.6302 48.4583 1 33 1C17.5417 1 5 10.6302 5 22.5C5 34.3698 17.5417 44 33 44C48.4583 44 61 34.3698 61 22.5Z" stroke="white" stroke-miterlimit="10"/>
</g>
<path d="M42 30L24 15M24 30L42 15" stroke="#FA1212" stroke-width="6" stroke-linecap="round" stroke-linejoin="round"/>
<defs>
<filter id="filter0_d_819:9" x="0.5" y="0.5" width="65" height="52" filterUnits="userSpaceOnUse" color-interpolation-filters="sRGB">
<feFlood flood-opacity="0" result="BackgroundImageFix"/>
<feColorMatrix in="SourceAlpha" type="matrix" values="0 0 0 0 0 0 0 0 0 0 0 0 0 0 0 0 0 0 127 0" result="hardAlpha"/>
<feOffset dy="4"/>
<feGaussianBlur stdDeviation="2"/>
<feComposite in2="hardAlpha" operator="out"/>
<feColorMatrix type="matrix" values="0 0 0 0 0 0 0 0 0 0 0 0 0 0 0 0 0 0 0.25 0"/>
<feBlend mode="normal" in2="BackgroundImageFix" result="effect1_dropShadow_819:9"/>
<feBlend mode="normal" in="SourceGraphic" in2="effect1_dropShadow_819:9" result="shape"/>
</filter>
</defs>
</svg>
