<svg width="15" height="14" viewBox="0 0 15 14" fill="none" xmlns="http://www.w3.org/2000/svg">
<mask id="path-1-inside-1" fill="white">
<path fill-rule="evenodd" clip-rule="evenodd" d="M0.9375 7C0.9375 8.62445 1.6289 10.1824 2.85961 11.331C4.09032 12.4797 5.75952 13.125 7.5 13.125C9.24048 13.125 10.9097 12.4797 12.1404 11.331C13.3711 10.1824 14.0625 8.62445 14.0625 7C14.0625 5.37555 13.3711 3.81763 12.1404 2.66897C10.9097 1.52031 9.24048 0.875 7.5 0.875C5.75952 0.875 4.09032 1.52031 2.85961 2.66897C1.6289 3.81763 0.9375 5.37555 0.9375 7ZM15 7C15 8.85652 14.2098 10.637 12.8033 11.9497C11.3968 13.2625 9.48912 14 7.5 14C5.51088 14 3.60322 13.2625 2.1967 11.9497C0.790177 10.637 0 8.85652 0 7C0 5.14348 0.790177 3.36301 2.1967 2.05025C3.60322 0.737498 5.51088 0 7.5 0C9.48912 0 11.3968 0.737498 12.8033 2.05025C14.2098 3.36301 15 5.14348 15 7Z"/>
</mask>
<path fill-rule="evenodd" clip-rule="evenodd" d="M0.9375 7C0.9375 8.62445 1.6289 10.1824 2.85961 11.331C4.09032 12.4797 5.75952 13.125 7.5 13.125C9.24048 13.125 10.9097 12.4797 12.1404 11.331C13.3711 10.1824 14.0625 8.62445 14.0625 7C14.0625 5.37555 13.3711 3.81763 12.1404 2.66897C10.9097 1.52031 9.24048 0.875 7.5 0.875C5.75952 0.875 4.09032 1.52031 2.85961 2.66897C1.6289 3.81763 0.9375 5.37555 0.9375 7ZM15 7C15 8.85652 14.2098 10.637 12.8033 11.9497C11.3968 13.2625 9.48912 14 7.5 14C5.51088 14 3.60322 13.2625 2.1967 11.9497C0.790177 10.637 0 8.85652 0 7C0 5.14348 0.790177 3.36301 2.1967 2.05025C3.60322 0.737498 5.51088 0 7.5 0C9.48912 0 11.3968 0.737498 12.8033 2.05025C14.2098 3.36301 15 5.14348 15 7Z" fill="white"/>
<path d="M0.9375 7H-19.0625H0.9375ZM15 7H35H15ZM7.5 14V34V14ZM0 7H-20H0ZM7.5 0V-20V0ZM-19.0625 7C-19.0625 14.3915 -15.9039 21.1761 -10.7868 25.9521L16.506 -3.29008C19.1617 -0.811389 20.9375 2.85742 20.9375 7H-19.0625ZM-10.7868 25.9521C-5.71624 30.6846 0.883371 33.125 7.5 33.125V-6.875C10.6357 -6.875 13.8969 -5.72523 16.506 -3.29008L-10.7868 25.9521ZM7.5 33.125C14.1166 33.125 20.7162 30.6846 25.7868 25.9521L-1.50598 -3.29008C1.10312 -5.72523 4.36433 -6.875 7.5 -6.875V33.125ZM25.7868 25.9521C30.9039 21.1761 34.0625 14.3915 34.0625 7H-5.9375C-5.9375 2.85741 -4.16171 -0.811393 -1.50598 -3.29008L25.7868 25.9521ZM34.0625 7C34.0625 -0.391488 30.9039 -7.17613 25.7868 -11.9521L-1.50598 17.2901C-4.16171 14.8114 -5.9375 11.1426 -5.9375 7H34.0625ZM25.7868 -11.9521C20.7162 -16.6846 14.1166 -19.125 7.5 -19.125V20.875C4.36434 20.875 1.10312 19.7252 -1.50598 17.2901L25.7868 -11.9521ZM7.5 -19.125C0.883373 -19.125 -5.71624 -16.6846 -10.7868 -11.9521L16.506 17.2901C13.8969 19.7252 10.6357 20.875 7.5 20.875V-19.125ZM-10.7868 -11.9521C-15.9039 -7.17613 -19.0625 -0.391481 -19.0625 7H20.9375C20.9375 11.1426 19.1617 14.8114 16.506 17.2901L-10.7868 -11.9521ZM-5 7C-5 3.08948 -3.32298 -0.356766 -0.843063 -2.67136L26.4497 26.5709C31.7426 21.6308 35 14.6235 35 7H-5ZM-0.843063 -2.67136C1.59022 -4.94242 4.61298 -6 7.5 -6V34C14.3653 34 21.2033 31.4674 26.4497 26.5709L-0.843063 -2.67136ZM7.5 -6C10.387 -6 13.4098 -4.94242 15.8431 -2.67136L-11.4497 26.5709C-6.20334 31.4674 0.634727 34 7.5 34V-6ZM15.8431 -2.67136C18.323 -0.356767 20 3.08948 20 7H-20C-20 14.6236 -16.7426 21.6308 -11.4497 26.5709L15.8431 -2.67136ZM20 7C20 10.9105 18.323 14.3568 15.8431 16.6714L-11.4497 -12.5709C-16.7426 -7.63075 -20 -0.623549 -20 7H20ZM15.8431 16.6714C13.4098 18.9424 10.387 20 7.5 20V-20C0.634729 -20 -6.20334 -17.4674 -11.4497 -12.5709L15.8431 16.6714ZM7.5 20C4.61298 20 1.59022 18.9424 -0.843063 16.6714L26.4497 -12.5709C21.2033 -17.4674 14.3653 -20 7.5 -20V20ZM-0.843063 16.6714C-3.32298 14.3568 -5 10.9105 -5 7H35C35 -0.623548 31.7426 -7.63075 26.4497 -12.5709L-0.843063 16.6714Z" fill="white" mask="url(#path-1-inside-1)"/>
</svg>
