<svg width="30" height="30" viewBox="0 0 30 30" fill="none" xmlns="http://www.w3.org/2000/svg">
<circle cx="15" cy="15" r="15" fill="#D0322F"/>
<mask id="path-2-inside-1" fill="white">
<path fill-rule="evenodd" clip-rule="evenodd" d="M8.9375 15C8.9375 16.6245 9.6289 18.1824 10.8596 19.331C12.0903 20.4797 13.7595 21.125 15.5 21.125C17.2405 21.125 18.9097 20.4797 20.1404 19.331C21.3711 18.1824 22.0625 16.6245 22.0625 15C22.0625 13.3755 21.3711 11.8176 20.1404 10.669C18.9097 9.52031 17.2405 8.875 15.5 8.875C13.7595 8.875 12.0903 9.52031 10.8596 10.669C9.6289 11.8176 8.9375 13.3755 8.9375 15ZM23 15C23 16.8565 22.2098 18.637 20.8033 19.9497C19.3968 21.2625 17.4891 22 15.5 22C13.5109 22 11.6032 21.2625 10.1967 19.9497C8.79018 18.637 8 16.8565 8 15C8 13.1435 8.79018 11.363 10.1967 10.0503C11.6032 8.7375 13.5109 8 15.5 8C17.4891 8 19.3968 8.7375 20.8033 10.0503C22.2098 11.363 23 13.1435 23 15Z"/>
</mask>
<path fill-rule="evenodd" clip-rule="evenodd" d="M8.9375 15C8.9375 16.6245 9.6289 18.1824 10.8596 19.331C12.0903 20.4797 13.7595 21.125 15.5 21.125C17.2405 21.125 18.9097 20.4797 20.1404 19.331C21.3711 18.1824 22.0625 16.6245 22.0625 15C22.0625 13.3755 21.3711 11.8176 20.1404 10.669C18.9097 9.52031 17.2405 8.875 15.5 8.875C13.7595 8.875 12.0903 9.52031 10.8596 10.669C9.6289 11.8176 8.9375 13.3755 8.9375 15ZM23 15C23 16.8565 22.2098 18.637 20.8033 19.9497C19.3968 21.2625 17.4891 22 15.5 22C13.5109 22 11.6032 21.2625 10.1967 19.9497C8.79018 18.637 8 16.8565 8 15C8 13.1435 8.79018 11.363 10.1967 10.0503C11.6032 8.7375 13.5109 8 15.5 8C17.4891 8 19.3968 8.7375 20.8033 10.0503C22.2098 11.363 23 13.1435 23 15Z" fill="white"/>
<path d="M8.9375 15H-11.0625H8.9375ZM23 15H43H23ZM15.5 22V42V22ZM8 15H-12H8ZM15.5 8V-12V8ZM-11.0625 15C-11.0625 22.3915 -7.9039 29.1761 -2.78675 33.9521L24.506 4.70992C27.1617 7.18861 28.9375 10.8574 28.9375 15H-11.0625ZM-2.78675 33.9521C2.28376 38.6846 8.88337 41.125 15.5 41.125V1.125C18.6357 1.125 21.8969 2.27477 24.506 4.70992L-2.78675 33.9521ZM15.5 41.125C22.1166 41.125 28.7162 38.6846 33.7868 33.9521L6.49402 4.70992C9.10312 2.27477 12.3643 1.125 15.5 1.125V41.125ZM33.7868 33.9521C38.9039 29.1761 42.0625 22.3915 42.0625 15H2.0625C2.0625 10.8574 3.83829 7.18861 6.49402 4.70992L33.7868 33.9521ZM42.0625 15C42.0625 7.60851 38.9039 0.82387 33.7868 -3.95214L6.49402 25.2901C3.83829 22.8114 2.0625 19.1426 2.0625 15H42.0625ZM33.7868 -3.95214C28.7162 -8.68461 22.1166 -11.125 15.5 -11.125V28.875C12.3643 28.875 9.10312 27.7252 6.49402 25.2901L33.7868 -3.95214ZM15.5 -11.125C8.88337 -11.125 2.28376 -8.68461 -2.78675 -3.95214L24.506 25.2901C21.8969 27.7252 18.6357 28.875 15.5 28.875V-11.125ZM-2.78675 -3.95214C-7.90391 0.823874 -11.0625 7.60852 -11.0625 15H28.9375C28.9375 19.1426 27.1617 22.8114 24.506 25.2901L-2.78675 -3.95214ZM3 15C3 11.0895 4.67702 7.64323 7.15694 5.32864L34.4497 34.5709C39.7426 29.6308 43 22.6235 43 15H3ZM7.15694 5.32864C9.59022 3.05758 12.613 2 15.5 2V42C22.3653 42 29.2033 39.4674 34.4497 34.5709L7.15694 5.32864ZM15.5 2C18.387 2 21.4098 3.05758 23.8431 5.32864L-3.44967 34.5709C1.79666 39.4674 8.63473 42 15.5 42V2ZM23.8431 5.32864C26.323 7.64323 28 11.0895 28 15H-12C-12 22.6236 -8.74263 29.6308 -3.44967 34.5709L23.8431 5.32864ZM28 15C28 18.9105 26.323 22.3568 23.8431 24.6714L-3.44967 -4.57085C-8.74263 0.369248 -12 7.37645 -12 15H28ZM23.8431 24.6714C21.4098 26.9424 18.387 28 15.5 28V-12C8.63473 -12 1.79666 -9.46742 -3.44967 -4.57085L23.8431 24.6714ZM15.5 28C12.613 28 9.59022 26.9424 7.15694 24.6714L34.4497 -4.57085C29.2033 -9.46742 22.3653 -12 15.5 -12V28ZM7.15694 24.6714C4.67702 22.3568 3 18.9105 3 15H43C43 7.37645 39.7426 0.369249 34.4497 -4.57085L7.15694 24.6714Z" fill="white" mask="url(#path-2-inside-1)"/>
<line y1="-0.6" x2="13.3697" y2="-0.6" transform="matrix(-0.666545 0.745465 -0.774134 -0.633022 19.9115 10)" stroke="white" stroke-width="1.2"/>
</svg>
