<svg width="30" height="30" viewBox="0 0 30 30" fill="none" xmlns="http://www.w3.org/2000/svg">
<circle cx="15" cy="15" r="15" fill="#D0322F"/>
<path d="M8.9325 8.00078L8 8.87106L10.0515 11.5524C10.1379 11.6653 10.2519 11.7573 10.3841 11.8208C10.5163 11.8842 10.6628 11.9172 10.8115 11.9171H10.8768C10.9994 11.917 11.1208 11.9394 11.2341 11.9832C11.3474 12.027 11.4503 12.0911 11.537 12.1721L14.0314 14.5001L11.5911 16.8098C11.1737 16.6951 10.7334 16.6728 10.3051 16.7446C9.87689 16.8164 9.47247 16.9804 9.12394 17.2235C8.77542 17.4665 8.49238 17.7821 8.29728 18.1451C8.10219 18.508 8.0004 18.9084 8 19.3145C8.00056 19.6887 8.08729 20.0583 8.2543 20.3985C8.42132 20.7387 8.66473 21.0413 8.96803 21.286C9.27134 21.5307 9.62746 21.7117 10.0123 21.8167C10.3971 21.9218 10.8016 21.9484 11.1983 21.8948C11.5951 21.8411 11.9749 21.7086 12.312 21.506C12.6491 21.3034 12.9356 21.0356 13.1521 20.7207C13.3686 20.4058 13.51 20.0511 13.5668 19.6807C13.6236 19.3103 13.5944 18.9328 13.4812 18.5739L15.9561 16.2963L16.8588 17.1388L16.5743 17.9342C16.5197 18.0875 16.5119 18.252 16.5517 18.4093C16.5916 18.5665 16.6775 18.7103 16.8 18.8245L19.9295 21.7452C20.1043 21.9083 20.3415 22 20.5888 22C20.836 22 21.0732 21.9083 21.248 21.7452L22.727 20.3649C22.9018 20.2017 23 19.9804 23 19.7496C23 19.5189 22.9018 19.2975 22.727 19.1343L19.5975 16.2137C19.4751 16.0994 19.3211 16.0191 19.1526 15.9819C18.9841 15.9447 18.8078 15.952 18.6436 16.003L17.7913 16.2685L16.8961 15.433L19.3952 13.1328C19.8097 13.2361 20.2442 13.2492 20.665 13.171C21.0859 13.0928 21.4818 12.9254 21.8224 12.6818C22.163 12.4382 22.4391 12.1249 22.6294 11.7659C22.8197 11.407 22.9191 11.0121 22.92 10.6116C22.92 10.3775 22.8874 10.1504 22.8249 9.93542L20.8293 11.7987L19.19 11.4819L18.8506 9.95283L20.8471 8.08955C20.3721 7.97037 19.8719 7.97015 19.3969 8.0889C18.9218 8.20765 18.4887 8.44119 18.1412 8.76596C17.7937 9.09073 17.5441 9.49526 17.4175 9.93878C17.2909 10.3823 17.2918 10.8491 17.4201 11.2922L14.9583 13.6228L12.4695 11.3018C12.2946 11.1386 12.1963 10.9173 12.1963 10.6865V10.6247C12.1963 10.4861 12.1608 10.3495 12.0929 10.2263C12.0249 10.1031 11.9264 9.99679 11.8055 9.91627L8.9325 8.00078ZM17.9274 17.2658C17.9707 17.2253 18.0222 17.1932 18.0788 17.1712C18.1354 17.1493 18.1962 17.138 18.2575 17.138C18.3188 17.138 18.3796 17.1493 18.4362 17.1712C18.4928 17.1932 18.5443 17.2253 18.5876 17.2658L21.3851 19.8767C21.4285 19.9171 21.4628 19.9652 21.4863 20.018C21.5098 20.0709 21.5218 20.1276 21.5218 20.1848C21.5218 20.242 21.5098 20.2986 21.4863 20.3515C21.4628 20.4044 21.4285 20.4524 21.3851 20.4929C21.3418 20.5333 21.2903 20.5654 21.2337 20.5873C21.177 20.6092 21.1163 20.6205 21.055 20.6205C20.9937 20.6205 20.933 20.6092 20.8764 20.5873C20.8197 20.5654 20.7682 20.5333 20.7249 20.4929L17.9274 17.882C17.884 17.8416 17.8495 17.7936 17.826 17.7407C17.8025 17.6878 17.7904 17.6312 17.7904 17.5739C17.7904 17.5167 17.8025 17.46 17.826 17.4071C17.8495 17.3543 17.884 17.3063 17.9274 17.2658ZM10.7975 17.5739L11.2367 17.7845L11.73 17.8072L11.9976 18.1944L12.4126 18.4442L12.4368 18.9046L12.6625 19.3145L12.4368 19.7244L12.4126 20.1848L11.9976 20.4345L11.73 20.8218L11.2367 20.8444L10.7975 21.0551L10.3583 20.8444L9.865 20.8218L9.59737 20.4345L9.18241 20.1848L9.15817 19.7244L8.9325 19.3145L9.15817 18.9046L9.18241 18.4442L9.59737 18.1944L9.865 17.8072L10.3583 17.7845L10.7975 17.5739Z" fill="white"/>
</svg>
