<svg width="30" height="30" viewBox="0 0 30 30" fill="none" xmlns="http://www.w3.org/2000/svg">
<circle cx="15" cy="15" r="15" fill="#D0322F"/>
<path d="M18.5 6H19.9C20.457 6 20.9911 6.23097 21.3849 6.64211C21.7788 7.05325 22 7.61087 22 8.19231V22.8077C22 23.3891 21.7788 23.9468 21.3849 24.3579C20.9911 24.769 20.457 25 19.9 25H10.1C9.54305 25 9.0089 24.769 8.61508 24.3579C8.22125 23.9468 8 23.3891 8 22.8077V8.19231C8 7.61087 8.22125 7.05325 8.61508 6.64211C9.0089 6.23097 9.54305 6 10.1 6H11.5" stroke="white" stroke-linejoin="round"/>
<path d="M17.0201 4H12.9799C12.4387 4 12 4.54838 12 5.22484V5.77516C12 6.45162 12.4387 7 12.9799 7H17.0201C17.5613 7 18 6.45162 18 5.77516V5.22484C18 4.54838 17.5613 4 17.0201 4Z" stroke="white" stroke-linejoin="round"/>
<path d="M18.9673 22.4936L18.0077 23.3426L17.0812 22.2954L17.2549 11.5882L19.1676 11.7894L18.9673 22.4936ZM19.1737 11.3811L17.2629 11.1803L17.2988 10.1078C17.3013 9.93863 17.3867 9.77145 17.5079 9.66417C17.5675 9.61118 17.6379 9.5716 17.715 9.5477C17.7922 9.5238 17.8747 9.51606 17.9577 9.52492L18.5406 9.58619C18.6234 9.59487 18.705 9.61992 18.7808 9.6599C18.8567 9.69988 18.9252 9.754 18.9825 9.81914C19.1004 9.95242 19.1786 10.1361 19.1757 10.3054L19.1737 11.3811Z" fill="white"/>
</svg>
