<?xml version="1.0" standalone="no"?>
<!DOCTYPE svg PUBLIC "-//W3C//DTD SVG 20010904//EN"
 "http://www.w3.org/TR/2001/REC-SVG-20010904/DTD/svg10.dtd">
<svg version="1.0" xmlns="http://www.w3.org/2000/svg"
 width="30.000000pt" height="30.000000pt" viewBox="0 0 30.000000 30.000000"
 preserveAspectRatio="xMidYMid meet">

<g transform="translate(0.000000,30.000000) scale(0.100000,-0.100000)"
fill="#000000" stroke="none">
<path d="M95 286 c-102 -44 -122 -172 -40 -245 64 -56 147 -50 204 14 53 61
50 143 -7 198 -48 46 -102 57 -157 33z m91 -31 c4 -8 12 -15 19 -15 19 0 25
-24 25 -109 0 -47 -5 -82 -12 -89 -7 -7 -39 -12 -74 -12 -73 0 -74 1 -74 107
0 70 2 79 28 104 30 31 79 39 88 14z"/>
<path d="M138 243 c6 -2 18 -2 25 0 6 3 1 5 -13 5 -14 0 -19 -2 -12 -5z"/>
<path d="M90 135 l0 -85 60 0 60 0 0 85 0 85 -60 0 -60 0 0 -85z m105 65 c9
-14 -6 -130 -16 -130 -5 0 -9 32 -9 70 0 64 9 86 25 60z"/>
</g>
</svg>
