<?xml version="1.0" encoding="utf-8"?>
<!-- Generator: Adobe Illustrator 16.0.0, SVG Export Plug-In . SVG Version: 6.00 Build 0)  -->
<!DOCTYPE svg PUBLIC "-//W3C//DTD SVG 1.1//EN" "http://www.w3.org/Graphics/SVG/1.1/DTD/svg11.dtd">
<svg version="1.1" id="Layer_1" xmlns="http://www.w3.org/2000/svg" xmlns:xlink="http://www.w3.org/1999/xlink" x="0px" y="0px"
	 width="64px" height="64px" viewBox="0 0 64 64" enable-background="new 0 0 64 64" xml:space="preserve">
<circle fill="#1F384A" cx="32" cy="32" r="31.5"/>
<g>
	<path fill="#FFFFFF" d="M42.904,13.73c-7.231-5.658-16.356-5.139-23.093,1.105c-4.5,4.172-7.373,12.03-3.491,19.157
		c2.13,3.913,4.675,7.511,7.59,10.844c2.53,2.893,5.213,5.652,7.865,8.509c0.339-0.228,0.463-0.286,0.558-0.378
		c4.877-4.648,9.431-9.586,13.155-15.222c1.729-2.617,3.475-5.321,3.861-8.498C50.123,22.916,47.883,17.625,42.904,13.73z
		 M31.989,40.441c-7.848-0.008-13.865-6.246-13.855-14.361c0.009-7.123,6.535-13.416,13.89-13.393
		c7.679,0.025,13.897,6.354,13.88,14.127C45.887,34.203,39.51,40.448,31.989,40.441z"/>
	<path fill="#FFFFFF" d="M30.156,21.359c-0.887-0.71-2.209-1.064-4.063-1.064c-1.835,0-3.137,0.117-4.063,0.275v13.116h2.979v-4.753
		c0.276,0.04,0.631,0.06,1.026,0.06c1.774,0,3.293-0.434,4.318-1.4c0.789-0.75,1.223-1.854,1.223-3.156
		C31.576,23.135,31.004,22.029,30.156,21.359z M26.014,26.685c-0.433,0-0.748-0.021-1.005-0.079v-3.925
		c0.217-0.06,0.631-0.118,1.242-0.118c1.499,0,2.347,0.729,2.347,1.952C28.598,25.876,27.611,26.685,26.014,26.685z"/>
</g>
<g>
	<path fill="#FFFFFF" d="M33.368,20.596c0.765-0.157,2.157-0.274,3.512-0.274c1.786,0,2.886,0.216,3.788,0.844
		c0.823,0.49,1.373,1.354,1.373,2.472c0,1.217-0.766,2.335-2.197,2.865v0.039c1.393,0.354,2.668,1.452,2.668,3.277
		c0,1.178-0.51,2.1-1.275,2.728c-0.94,0.824-2.491,1.236-4.904,1.236c-1.335,0-2.354-0.1-2.963-0.178L33.368,20.596L33.368,20.596z
		 M35.762,25.816h1.236c1.668,0,2.609-0.785,2.609-1.903c0-1.236-0.941-1.805-2.473-1.805c-0.707,0-1.119,0.039-1.373,0.098V25.816
		L35.762,25.816z M35.762,31.899c0.314,0.04,0.727,0.059,1.275,0.059c1.551,0,2.924-0.589,2.924-2.217
		c0-1.531-1.334-2.159-3.002-2.159h-1.197V31.899z"/>
</g>
</svg>
