<svg width="63" height="63" viewBox="0 0 63 63" fill="none" xmlns="http://www.w3.org/2000/svg">
<path d="M31.5 63C48.897 63 63 48.897 63 31.5C63 14.103 48.897 0 31.5 0C14.103 0 0 14.103 0 31.5C0 48.897 14.103 63 31.5 63Z" fill="#E00D0D"/>
<path d="M33.5628 11.046C32.8946 8.31801 29.1081 8.31801 28.4372 11.046L28.2419 11.8503C28.1277 12.3177 27.8932 12.7454 27.5629 13.0889C27.2325 13.4324 26.8183 13.6792 26.3632 13.8037C25.9081 13.9282 25.4287 13.926 24.9748 13.7971C24.5209 13.6682 24.1089 13.4175 23.7817 13.0708L23.218 12.4774C21.3069 10.4554 18.0263 12.3931 18.7825 15.0957L19.0025 15.8944C19.1318 16.3572 19.1377 16.8469 19.0198 17.3128C18.9018 17.7787 18.6643 18.2039 18.3316 18.5443C17.999 18.8848 17.5835 19.1281 17.128 19.2491C16.6726 19.3701 16.1938 19.3645 15.7412 19.2326L14.9603 19.0048C12.3204 18.2315 10.423 21.5866 12.4002 23.5411L12.9804 24.1177C13.3193 24.4523 13.5645 24.8736 13.6905 25.3379C13.8165 25.8021 13.8187 26.2924 13.697 26.7578C13.5752 27.2233 13.3339 27.6469 12.998 27.9848C12.6621 28.3226 12.244 28.5624 11.787 28.6792L11.0005 28.8789C8.33317 29.5623 8.33317 33.4349 11.0005 34.1211L11.787 34.3208C12.244 34.4376 12.6621 34.6774 12.998 35.0152C13.3339 35.3531 13.5752 35.7767 13.697 36.2422C13.8187 36.7076 13.8165 37.1979 13.6905 37.6621C13.5645 38.1264 13.3193 38.5477 12.9804 38.8824L12.4002 39.4589C10.423 41.4134 12.3177 44.7685 14.9603 43.9952L15.7412 43.7702C16.194 43.6377 16.6731 43.6315 17.129 43.7523C17.5849 43.873 18.0009 44.1163 18.3339 44.4568C18.6668 44.7974 18.9047 45.2228 19.0227 45.6891C19.1408 46.1553 19.1348 46.6454 19.0052 47.1084L18.7825 47.9043C18.0263 50.6041 21.3069 52.5446 23.218 50.5226L23.7817 49.9292C24.1089 49.5825 24.5209 49.3318 24.9748 49.2029C25.4287 49.074 25.9081 49.0718 26.3632 49.1963C26.8183 49.3208 27.2325 49.5676 27.5629 49.9111C27.8932 50.2546 28.1277 50.6823 28.2419 51.1497L28.4372 51.954C29.1054 54.682 32.8919 54.682 33.5628 51.954L33.7581 51.1497C33.8723 50.6823 34.1068 50.2546 34.4371 49.9111C34.7675 49.5676 35.1817 49.3208 35.6368 49.1963C36.0919 49.0718 36.5713 49.074 37.0252 49.2029C37.4791 49.3318 37.8911 49.5825 38.2183 49.9292L38.782 50.5226C40.6931 52.5446 43.9737 50.6069 43.2175 47.9043L42.9975 47.1056C42.868 46.6425 42.8619 46.1525 42.98 45.6863C43.0981 45.22 43.3359 44.7946 43.6689 44.454C44.0019 44.1135 44.4179 43.8702 44.8738 43.7495C45.3296 43.6287 45.8088 43.6349 46.2615 43.7674L47.0397 43.9952C49.6796 44.7685 51.577 41.4134 49.5998 39.4589L49.0196 38.8824C48.6807 38.5477 48.4355 38.1264 48.3095 37.6621C48.1835 37.1979 48.1813 36.7076 48.303 36.2422C48.4248 35.7767 48.6661 35.3531 49.002 35.0152C49.3379 34.6774 49.756 34.4376 50.2131 34.3208L50.9995 34.1211C53.6668 33.4377 53.6668 29.5651 50.9995 28.8789L50.2131 28.6792C49.756 28.5624 49.3379 28.3226 49.002 27.9848C48.6661 27.6469 48.4248 27.2233 48.303 26.7578C48.1813 26.2924 48.1835 25.8021 48.3095 25.3379C48.4355 24.8736 48.6807 24.4523 49.0196 24.1177L49.5998 23.5411C51.577 21.5866 49.6823 18.2315 47.0397 19.0048L46.2588 19.2298C45.8063 19.362 45.3275 19.3681 44.872 19.2475C44.4164 19.1269 44.0007 18.8839 43.6678 18.5437C43.3349 18.2036 43.097 17.7786 42.9786 17.3128C42.8603 16.847 42.8659 16.3573 42.9948 15.8944L43.2175 15.0957C43.9737 12.3959 40.6931 10.4554 38.782 12.4774L38.2183 13.0708C37.8911 13.4175 37.4791 13.6682 37.0252 13.7971C36.5713 13.926 36.0919 13.9282 35.6368 13.8037C35.1817 13.6792 34.7675 13.4324 34.4371 13.0889C34.1068 12.7454 33.8723 12.3177 33.7581 11.8503L33.5628 11.046ZM31 45.5532C29.179 45.5795 27.371 45.2355 25.6811 44.541C23.9913 43.8465 22.4532 42.8154 21.1564 41.5077C19.8595 40.2 18.8297 38.6418 18.1268 36.9235C17.4239 35.2052 17.062 33.3612 17.062 31.4986C17.062 29.636 17.4239 27.792 18.1268 26.0737C18.8297 24.3554 19.8595 22.7972 21.1564 21.4895C22.4532 20.1818 23.9913 19.1507 25.6811 18.4562C27.371 17.7617 29.179 17.4177 31 17.444C34.645 17.444 38.1408 18.9249 40.7182 21.5609C43.2957 24.1969 44.7436 27.7721 44.7436 31.5C44.7436 35.2279 43.2957 38.8031 40.7182 41.4391C38.1408 44.0751 34.645 45.556 31 45.556V45.5532Z" fill="white"/>
<path d="M29.25 22.775H32.675L32.325 35.675H29.575L29.25 22.775ZM29.525 38.275H32.375V42H29.525V38.275Z" fill="white"/>
</svg>
