<svg width="149" height="146" viewBox="0 0 149 146" fill="none" xmlns="http://www.w3.org/2000/svg">
<path d="M74.5 146C115.645 146 149 113.317 149 73C149 32.6832 115.645 0 74.5 0C33.3548 0 0 32.6832 0 73C0 113.317 33.3548 146 74.5 146Z" fill="#4A943F"/>
<path d="M79.8281 27.5469C78.3094 21.4844 69.7031 21.4844 68.1781 27.5469L67.7344 29.3344C67.4747 30.3732 66.9418 31.3236 66.191 32.0869C65.4401 32.8503 64.4987 33.3988 63.4643 33.6756C62.4299 33.9523 61.3404 33.9473 60.3086 33.6609C59.2769 33.3745 58.3406 32.8172 57.5969 32.0469L56.3156 30.7281C51.9719 26.2344 44.5156 30.5406 46.2344 36.5469L46.7344 38.3219C47.0282 39.3503 47.0417 40.4385 46.7737 41.474C46.5056 42.5094 45.9656 43.4543 45.2096 44.2109C44.4536 44.9675 43.5092 45.5083 42.474 45.7772C41.4388 46.0462 40.3505 46.0336 39.3219 45.7406L37.5469 45.2344C31.5469 43.5156 27.2344 50.9719 31.7281 55.3156L33.0469 56.5969C33.8172 57.3406 34.3745 58.2769 34.6609 59.3086C34.9473 60.3404 34.9523 61.4299 34.6756 62.4643C34.3988 63.4987 33.8503 64.4401 33.0869 65.191C32.3236 65.9418 31.3732 66.4747 30.3344 66.7344L28.5469 67.1781C22.4844 68.6969 22.4844 77.3031 28.5469 78.8281L30.3344 79.2719C31.3732 79.5315 32.3236 80.0644 33.0869 80.8153C33.8503 81.5661 34.3988 82.5076 34.6756 83.5419C34.9523 84.5763 34.9473 85.6659 34.6609 86.6976C34.3745 87.7294 33.8172 88.6657 33.0469 89.4094L31.7281 90.6906C27.2344 95.0344 31.5406 102.491 37.5469 100.772L39.3219 100.272C40.3509 99.9775 41.44 99.9638 42.4761 100.232C43.5123 100.5 44.4578 101.041 45.2146 101.798C45.9715 102.555 46.5121 103.5 46.7804 104.536C47.0487 105.573 47.035 106.662 46.7406 107.691L46.2344 109.459C44.5156 115.459 51.9719 119.772 56.3156 115.278L57.5969 113.959C58.3406 113.189 59.2769 112.632 60.3086 112.345C61.3404 112.059 62.4299 112.054 63.4643 112.331C64.4987 112.607 65.4401 113.156 66.191 113.919C66.9418 114.683 67.4747 115.633 67.7344 116.672L68.1781 118.459C69.6969 124.522 78.3031 124.522 79.8281 118.459L80.2719 116.672C80.5315 115.633 81.0644 114.683 81.8153 113.919C82.5661 113.156 83.5076 112.607 84.5419 112.331C85.5763 112.054 86.6659 112.059 87.6976 112.345C88.7294 112.632 89.6657 113.189 90.4094 113.959L91.6906 115.278C96.0344 119.772 103.491 115.466 101.772 109.459L101.272 107.684C100.978 106.655 100.964 105.566 101.232 104.53C101.5 103.494 102.041 102.548 102.798 101.792C103.555 101.035 104.5 100.494 105.536 100.226C106.573 99.9575 107.662 99.9713 108.691 100.266L110.459 100.772C116.459 102.491 120.772 95.0344 116.278 90.6906L114.959 89.4094C114.189 88.6657 113.632 87.7294 113.345 86.6976C113.059 85.6659 113.054 84.5763 113.331 83.5419C113.607 82.5076 114.156 81.5661 114.919 80.8153C115.683 80.0644 116.633 79.5315 117.672 79.2719L119.459 78.8281C125.522 77.3094 125.522 68.7031 119.459 67.1781L117.672 66.7344C116.633 66.4747 115.683 65.9418 114.919 65.191C114.156 64.4401 113.607 63.4987 113.331 62.4643C113.054 61.4299 113.059 60.3404 113.345 59.3086C113.632 58.2769 114.189 57.3406 114.959 56.5969L116.278 55.3156C120.772 50.9719 116.466 43.5156 110.459 45.2344L108.684 45.7344C107.656 46.0282 106.568 46.0417 105.532 45.7737C104.497 45.5056 103.552 44.9656 102.795 44.2096C102.039 43.4536 101.498 42.5092 101.229 41.474C100.96 40.4388 100.973 39.3505 101.266 38.3219L101.772 36.5469C103.491 30.5469 96.0344 26.2344 91.6906 30.7281L90.4094 32.0469C89.6657 32.8172 88.7294 33.3745 87.6976 33.6609C86.6659 33.9473 85.5763 33.9523 84.5419 33.6756C83.5076 33.3988 82.5661 32.8503 81.8153 32.0869C81.0644 31.3236 80.5315 30.3732 80.2719 29.3344L79.8281 27.5469ZM74.0031 104.234C69.8642 104.293 65.7549 103.528 61.914 101.985C58.0732 100.441 54.5774 98.1501 51.6298 95.2439C48.6822 92.3377 46.3416 88.8747 44.744 85.0561C43.1465 81.2374 42.3238 77.1393 42.3238 73C42.3238 68.8607 43.1465 64.7626 44.744 60.9439C46.3416 57.1253 48.6822 53.6623 51.6298 50.7561C54.5774 47.8499 58.0732 45.5585 61.914 44.0151C65.7549 42.4717 69.8642 41.7071 74.0031 41.7656C82.2878 41.7656 90.2332 45.0567 96.0914 50.9149C101.95 56.773 105.241 64.7184 105.241 73.0031C105.241 81.2878 101.95 89.2332 96.0914 95.0914C90.2332 100.95 82.2878 104.241 74.0031 104.241V104.234Z" fill="white"/>
<path d="M70.5005 52.55H77.3505L76.6505 78.35H71.1505L70.5005 52.55ZM71.0505 83.55H76.7505V91H71.0505V83.55Z" fill="white"/>
</svg>
